<?xml version="1.0" encoding="UTF-8"?>
<svg version="1.1" xmlns="http://www.w3.org/2000/svg" width="512" height="512">
<path d="M0 0 C6.31520975 3.6778233 10.75899796 8.68079217 14.0390625 15.1875 C14.70703125 18.47265625 14.70703125 18.47265625 15.0390625 21.1875 C16.10125 21.14109375 17.1634375 21.0946875 18.2578125 21.046875 C33.52408748 20.57031161 33.52408748 20.57031161 39.0390625 25.1875 C42.88573189 28.86823463 45.87202957 31.92454469 47.0390625 37.1875 C47.83562256 37.17861755 48.63218262 37.16973511 49.45288086 37.1605835 C56.98502055 37.08020596 64.51695026 37.01941871 72.04940796 36.98025131 C75.9213094 36.95943744 79.79285442 36.9312349 83.66455078 36.88574219 C87.40580718 36.84206071 91.14672224 36.81831633 94.88821411 36.80799103 C96.31069303 36.80063936 97.73315473 36.78628362 99.15548706 36.76457977 C108.24206284 36.63152581 114.94298599 36.78992046 122.0625 42.93359375 C122.50851562 43.49175781 122.95453125 44.04992188 123.4140625 44.625 C124.10628906 45.45837891 124.10628906 45.45837891 124.8125 46.30859375 C127.7779335 50.85118456 128.29979114 54.804899 128.35791016 60.1809082 C128.36795578 60.86438828 128.3780014 61.54786835 128.38835144 62.25205994 C128.41909155 64.49745897 128.43619264 66.74273926 128.453125 68.98828125 C128.47184407 70.55056269 128.49141804 72.11283411 128.5118103 73.6750946 C128.56305959 77.77672401 128.60272371 81.87838616 128.63995361 85.98016357 C128.68003855 90.16980036 128.73111037 94.35930174 128.78125 98.54882812 C128.87792394 106.76162613 128.96235585 114.97449135 129.0390625 123.1875 C129.29075195 122.63811768 129.54244141 122.08873535 129.80175781 121.52270508 C130.95702697 119.01176833 132.12292867 116.50590828 133.2890625 114 C133.68480469 113.13568359 134.08054687 112.27136719 134.48828125 111.38085938 C137.56854574 104.7911132 140.35435762 99.61137323 147.0390625 96.1875 C147.85560303 95.94362549 148.67214355 95.69975098 149.51342773 95.44848633 C152.87548611 93.76989459 153.48632144 92.09792055 155.01171875 88.69921875 C155.51896484 87.60029297 156.02621094 86.50136719 156.54882812 85.36914062 C157.31743164 83.63954102 157.31743164 83.63954102 158.1015625 81.875 C159.12809876 79.60534242 160.16046278 77.33830979 161.19921875 75.07421875 C161.87416382 73.56154419 161.87416382 73.56154419 162.56274414 72.01831055 C165.99214479 65.44250428 170.40294026 61.5596216 177.3515625 58.9375 C186.47410284 57.08206807 192.8912843 58.34855405 200.796875 63.28515625 C205.76215401 66.96545099 208.20243124 71.68625548 209.609375 77.57421875 C211.30120033 89.03903509 205.51442457 98.79246059 200.27148438 108.59570312 C197.46432661 113.92576117 197.46432661 113.92576117 197.80859375 119.76953125 C198.41767578 121.46142578 198.41767578 121.46142578 199.0390625 123.1875 C199.43642061 130.73548133 196.17241203 137.10773227 192.9765625 143.75 C192.50412109 144.75869141 192.03167969 145.76738281 191.54492188 146.80664062 C190.38786844 149.2726838 189.21917041 151.73242841 188.0390625 154.1875 C188.64621094 154.47109375 189.25335938 154.7546875 189.87890625 155.046875 C195.66156309 158.10028512 198.54083443 163.10142345 200.7265625 169.0625 C202.69890085 182.47440079 195.30823045 194.09421485 189.5390625 205.75 C188.10153321 208.66995432 186.66851968 211.59209303 185.23828125 214.515625 C184.88179001 215.24388992 184.52529877 215.97215485 184.15800476 216.7224884 C181.85857532 221.44255685 179.64341659 226.19332536 177.49609375 230.984375 C176.96113281 232.17345459 176.42617188 233.36253418 175.875 234.58764648 C174.88338156 236.80877644 173.90233336 239.03466566 172.93359375 241.26586914 C168.78263944 250.54442854 168.78263944 250.54442854 164.0390625 253.1875 C160.10155266 253.74013296 158.01520978 253.82970216 154.6640625 251.625 C152.50565775 248.38739288 152.25916762 246.0689209 152.0390625 242.1875 C153.18798828 238.80786133 153.18798828 238.80786133 154.984375 235.26953125 C155.30601624 234.62221039 155.62765747 233.97488953 155.95904541 233.30795288 C157.01165376 231.19698919 158.08786614 229.09902048 159.1640625 227 C160.26971172 224.7949006 161.36886048 222.5866367 162.46780396 220.37818909 C163.21582107 218.87606073 163.96589761 217.37495622 164.71798706 215.87486267 C168.43717391 208.44519488 171.94507057 200.92397796 175.4140625 193.375 C176.46335453 191.09757002 177.51281803 188.82021903 178.5625 186.54296875 C178.99481934 185.60090576 179.42713867 184.65884277 179.87255859 183.68823242 C180.60415807 182.11984117 181.37769387 180.56964255 182.20947266 179.05200195 C183.47102436 176.21666635 182.81911691 174.11270404 182.0390625 171.1875 C181.3790625 170.8575 180.7190625 170.5275 180.0390625 170.1875 C168.18261401 194.40459063 168.18261401 194.40459063 156.7265625 218.8125 C150.25265258 232.91671525 143.42145686 246.84284844 136.5769043 260.77001953 C136.15166977 261.63675797 135.72643524 262.5034964 135.28831482 263.39649963 C134.48386945 265.03564898 133.67776503 266.67398547 132.86976624 268.31138611 C132.51087814 269.0427327 132.15199005 269.77407928 131.78222656 270.52758789 C131.46835999 271.16483292 131.15449341 271.80207794 130.83111572 272.45863342 C129.11226728 276.21047678 128.91239582 279.18102212 128.90776062 283.26493835 C128.90375244 284.53645248 128.89974426 285.80796661 128.89561462 287.11801147 C128.89608973 288.53009035 128.89662584 289.94216921 128.8972168 291.35424805 C128.89418512 292.83922936 128.89066364 294.32420975 128.88668823 295.80918884 C128.8787983 299.00944306 128.87365391 302.20968613 128.87039757 305.40994835 C128.86448579 310.47416466 128.84794292 315.53831074 128.82905579 320.60249329 C128.82271827 322.33673759 128.81639265 324.07098194 128.81007862 325.80522633 C128.80691281 326.67380036 128.803747 327.54237439 128.80048525 328.43726885 C128.75842613 340.22729106 128.72544447 352.01728083 128.71313477 363.80737305 C128.70474675 371.75960015 128.68222745 379.71165362 128.6437791 387.66379386 C128.62404094 391.87045765 128.61160632 396.07686201 128.61661339 400.28357506 C128.62126986 404.24407982 128.60740042 408.20409347 128.57960129 412.16449928 C128.57270586 413.61403923 128.57254518 415.06363015 128.57980156 416.51316833 C128.62019994 425.49376126 128.36388352 432.17573873 122.29296875 439.2109375 C121.73480469 439.65695312 121.17664063 440.10296875 120.6015625 440.5625 C120.04597656 441.02398437 119.49039062 441.48546875 118.91796875 441.9609375 C114.4616883 444.87002702 110.63952871 445.43628505 105.36357117 445.42800903 C104.37711041 445.43057231 104.37711041 445.43057231 103.37072116 445.43318737 C101.17501384 445.43647219 98.97961455 445.42549546 96.78393555 445.41455078 C95.20686348 445.41398645 93.62979088 445.41430366 92.05271912 445.41543579 C87.77624597 445.41600944 83.49988509 445.40425308 79.22343802 445.39028788 C74.75246484 445.37778264 70.28148907 445.37661018 65.8105011 445.37423706 C57.34622662 445.36802169 48.88200382 445.35161008 40.41775209 445.33153808 C30.78058371 445.30918088 21.14341285 445.2981861 11.50622499 445.28814721 C-8.31619135 445.26724392 -28.13856117 445.23206681 -47.9609375 445.1875 C-47.93483398 446.7334082 -47.93483398 446.7334082 -47.90820312 448.31054688 C-47.89412859 449.67577716 -47.88047911 451.04101187 -47.8671875 452.40625 C-47.84833496 453.42283691 -47.84833496 453.42283691 -47.82910156 454.45996094 C-47.77916703 461.30099144 -49.16393665 465.2561964 -53.83203125 470.1484375 C-59.42107622 475.32543568 -63.78137748 477.43241296 -71.50666809 477.45492554 C-72.15049696 477.45945665 -72.79432583 477.46398776 -73.45766467 477.46865618 C-75.60702271 477.48127878 -77.75612666 477.47968124 -79.90551758 477.47802734 C-81.4499087 477.48401398 -82.99429683 477.49081984 -84.53868103 477.49838257 C-88.72888714 477.51603696 -92.91901155 477.52073774 -97.10925126 477.52201414 C-99.72903366 477.52343672 -102.34879536 477.52770836 -104.96857262 477.53300858 C-114.11358329 477.55150764 -123.25853569 477.55967942 -132.40356445 477.55810547 C-140.91906166 477.55690439 -149.43430527 477.57800031 -157.94973832 477.6095928 C-165.26796241 477.63577303 -172.58610376 477.64647202 -179.9043743 477.64519465 C-184.2719961 477.64468549 -188.63939252 477.65034302 -193.00696754 477.67155075 C-197.1168246 477.69096245 -201.22624201 477.69103781 -205.33611488 477.67651749 C-206.84050643 477.67443184 -208.34492571 477.67911574 -209.84926987 477.6912384 C-219.00550072 477.7602168 -226.00798988 477.52780079 -233.203125 471.22265625 C-233.74195313 470.57167969 -234.28078125 469.92070312 -234.8359375 469.25 C-235.39023438 468.60160156 -235.94453125 467.95320313 -236.515625 467.28515625 C-239.58503977 462.83035698 -240.21274232 459.00208913 -240.22836304 453.64176941 C-240.23289415 452.99794054 -240.23742526 452.35411167 -240.24209368 451.69077283 C-240.25471628 449.54141479 -240.25311874 447.39231084 -240.25146484 445.24291992 C-240.25745148 443.6985288 -240.26425734 442.15414067 -240.27182007 440.60975647 C-240.28947446 436.41955036 -240.29417524 432.22942595 -240.29545164 428.03918624 C-240.29687422 425.41940384 -240.30114586 422.79964214 -240.30644608 420.17986488 C-240.32494514 411.03485421 -240.33311692 401.88990181 -240.33154297 392.74487305 C-240.33034189 384.22937584 -240.35143781 375.71413223 -240.3830303 367.19869918 C-240.40921053 359.88047509 -240.41990952 352.56233374 -240.41863215 345.2440632 C-240.41812299 340.8764414 -240.42378052 336.50904498 -240.44498825 332.14146996 C-240.46439995 328.0316129 -240.46447531 323.92219549 -240.44995499 319.81232262 C-240.44786934 318.30793107 -240.45255324 316.80351179 -240.4646759 315.29916763 C-240.5336543 306.14293678 -240.30123829 299.14044762 -233.99609375 291.9453125 C-233.01962891 291.13707031 -233.01962891 291.13707031 -232.0234375 290.3125 C-231.37503906 289.75820313 -230.72664063 289.20390625 -230.05859375 288.6328125 C-225.66157241 285.60320748 -221.9029137 284.93923557 -216.61010742 284.96044922 C-214.71871284 284.96067581 -214.71871284 284.96067581 -212.78910828 284.96090698 C-211.42320598 284.97111864 -210.05730531 284.9815506 -208.69140625 284.9921875 C-207.28607891 284.99592059 -205.88074897 284.99876617 -204.47541809 285.00076294 C-200.78794082 285.00837611 -197.10062268 285.02800447 -193.41320801 285.0501709 C-189.64593661 285.07067941 -185.87863934 285.07977533 -182.11132812 285.08984375 C-174.72779227 285.11125275 -167.34438724 285.14536046 -159.9609375 285.1875 C-159.96462467 283.99920845 -159.96831184 282.8109169 -159.97211075 281.58661652 C-160.05877546 253.36768896 -160.12471622 225.14876803 -160.16519882 196.92973593 C-160.17020154 193.45511018 -160.17537884 189.98048471 -160.18066406 186.50585938 C-160.1817133 185.81413523 -160.18276255 185.12241109 -160.18384358 184.40972561 C-160.20124036 173.2150626 -160.23277401 162.02048191 -160.26954868 150.82586771 C-160.30697842 139.33586363 -160.3288783 127.84591741 -160.33729148 116.35585356 C-160.34250716 109.90341843 -160.3547698 103.4511699 -160.38385773 96.99879456 C-160.41101719 90.92495901 -160.41938127 84.85138684 -160.41336823 78.77749634 C-160.41446821 76.54906279 -160.42241868 74.32062039 -160.4377594 72.09223938 C-160.45769511 69.04688815 -160.45286309 66.00252805 -160.44195557 62.95715332 C-160.45360693 62.07775605 -160.4652583 61.19835877 -160.47726274 60.2923131 C-160.41206732 53.54637125 -158.65878367 48.31386312 -154.21484375 43.1640625 C-153.65667969 42.71804687 -153.09851563 42.27203125 -152.5234375 41.8125 C-151.96785156 41.35101563 -151.41226563 40.88953125 -150.83984375 40.4140625 C-146.42932222 37.5348447 -142.64913231 36.9401672 -137.42651367 36.96044922 C-135.47505684 36.96067581 -135.47505684 36.96067581 -133.48417664 36.96090698 C-132.07408493 36.97111876 -130.66399481 36.98155073 -129.25390625 36.9921875 C-127.80373836 36.99592041 -126.35356793 36.99876607 -124.90339661 37.00076294 C-121.09755416 37.00837751 -117.2918658 37.02800711 -113.48608398 37.0501709 C-109.59816573 37.07067637 -105.71022244 37.07977469 -101.82226562 37.08984375 C-94.20175288 37.11125522 -86.58136683 37.14536466 -78.9609375 37.1875 C-78.65623535 36.40125244 -78.3515332 35.61500488 -78.03759766 34.80493164 C-75.67709466 29.06639363 -71.23970996 24.43360104 -65.59375 21.83203125 C-59.54778789 20.35193667 -53.13556779 20.9177346 -46.9609375 21.1875 C-46.80625 19.8571875 -46.80625 19.8571875 -46.6484375 18.5 C-45.17165595 11.38459798 -40.29004155 5.75480026 -34.3984375 1.6875 C-24.47278912 -4.57749641 -10.57537184 -5.09315567 0 0 Z M-26.9609375 18.1875 C-27.6209375 19.1775 -28.2809375 20.1675 -28.9609375 21.1875 C-20.3809375 21.1875 -11.8009375 21.1875 -2.9609375 21.1875 C-7.21347478 15.61312724 -7.21347478 15.61312724 -13.328125 13.8515625 C-19.06972581 13.76212947 -22.45946557 14.24871206 -26.9609375 18.1875 Z " fill="#000000" transform="translate(271.9609375,18.8125)"/>
<path d="M0 0 C0.73336075 -0.00478363 1.4667215 -0.00956726 2.2223053 -0.01449585 C3.76793573 -0.01788667 5.31363867 -0.00874115 6.85913086 0.01220703 C9.2130698 0.03895357 11.56222548 0.01245962 13.91601562 -0.01953125 C15.42318752 -0.01622625 16.93035646 -0.00981812 18.4375 0 C19.48308327 -0.01518173 19.48308327 -0.01518173 20.54978943 -0.03067017 C26.01264833 0.09897483 28.3562626 2.06725027 32.28515625 5.6640625 C36.71962413 8.04369356 41.1343403 7.96646291 46.04760742 7.97045898 C46.91984955 7.9787825 47.79209167 7.98710602 48.69076538 7.99568176 C51.56993093 8.01974477 54.4488696 8.02855056 57.328125 8.03515625 C59.33726568 8.04412729 61.3464057 8.05324923 63.35554504 8.06251526 C67.56785706 8.07899911 71.78008968 8.08670394 75.99243164 8.08959961 C81.37131775 8.09497444 86.74944969 8.13262019 92.12812328 8.17834377 C96.27961398 8.20819645 100.43092514 8.215325 104.58251381 8.21632576 C106.56432858 8.22051384 108.54614458 8.23289098 110.52785301 8.25384331 C125.22473436 8.69977202 125.22473436 8.69977202 138.28515625 2.6640625 C138.94515625 2.0040625 139.60515625 1.3440625 140.28515625 0.6640625 C142.73598291 0.45218361 145.07098706 0.36006898 147.5234375 0.36328125 C148.24121872 0.35899612 148.95899994 0.354711 149.6985321 0.35029602 C151.21917669 0.34454871 152.73984877 0.34405542 154.26049805 0.34838867 C156.57844578 0.35153641 158.89510195 0.32813953 161.21289062 0.30273438 C162.69140464 0.30046006 164.16992209 0.2997585 165.6484375 0.30078125 C166.68306877 0.28696663 166.68306877 0.28696663 167.73860168 0.27287292 C172.08530414 0.31428093 174.825327 1.00549098 178.28515625 3.6640625 C179.56603143 6.22581285 179.4521614 8.10334832 179.50634766 10.97294617 C179.52939972 12.10046295 179.55245178 13.22797974 179.57620239 14.3896637 C179.59617279 15.63352341 179.61614319 16.87738312 179.63671875 18.15893555 C179.66095917 19.46517883 179.68519958 20.77142212 179.71017456 22.11724854 C179.92846045 34.27451383 180.04850956 46.43341946 180.14447021 58.59219646 C180.21027175 66.74544196 180.30370269 74.89625642 180.47167969 83.0480957 C180.61855742 90.17648977 180.7092769 97.30319232 180.73715401 104.43307906 C180.75355919 108.19246817 180.79396371 111.94735419 180.90167236 115.70532799 C181.50362309 137.64706175 176.9630301 153.01304288 166.21809387 172.11312294 C162.95256123 177.99961389 160.24596121 184.15999996 157.47265625 190.2890625 C152.18414393 201.79906209 146.74662444 213.2352859 141.28515625 224.6640625 C140.32937683 224.66770813 139.37359741 224.67135376 138.38885498 224.67510986 C129.38361724 224.71204349 120.37872198 224.76979802 111.37374496 224.84796524 C106.74410326 224.88748267 102.11465298 224.91965011 97.48486328 224.93505859 C93.01721541 224.95019724 88.55009363 224.98459261 84.08267975 225.03237152 C82.37788718 225.04721425 80.67301951 225.05510517 78.96816254 225.05594635 C76.58074285 225.05830917 74.19478521 225.08533081 71.80761719 225.11816406 C71.10199142 225.1131337 70.39636566 225.10810333 69.6693573 225.10292053 C66.31770477 225.17428834 64.55014456 225.46342632 61.84625244 227.51068115 C60.06051306 229.63720694 60.06051306 229.63720694 59.78515625 232.6640625 C60.41191992 236.42464455 61.27342733 237.36752147 64.28515625 239.6640625 C67.6717593 240.28201494 67.6717593 240.28201494 71.53222656 240.20996094 C72.61574905 240.22546745 72.61574905 240.22546745 73.72116089 240.24128723 C76.10209511 240.27071912 78.4821794 240.2722144 80.86328125 240.2734375 C82.5166791 240.28841899 84.17006197 240.30514607 85.82342529 240.32354736 C90.17009162 240.36723708 94.51655607 240.38722343 98.86340332 240.40228271 C103.30098414 240.42184805 107.73834676 240.46381867 112.17578125 240.50390625 C120.87884918 240.57922588 129.58183147 240.62950656 138.28515625 240.6640625 C137.3074915 250.9752966 136.32542575 261.24978606 134.66015625 271.4765625 C133.35622835 279.95408522 132.92964578 288.09231016 133.28515625 296.6640625 C136.93789712 297.88164279 139.44025144 298.03523904 143.28515625 297.6640625 C145.75504619 296.1578151 147.68805755 294.77519029 149.84765625 292.9140625 C150.44263916 292.42470215 151.03762207 291.9353418 151.65063477 291.43115234 C153.54647335 289.8618566 155.4180137 288.26735922 157.28515625 286.6640625 C157.9100293 286.13006836 158.53490234 285.59607422 159.17871094 285.04589844 C162.80418022 281.94532413 162.80418022 281.94532413 166.40258789 278.81347656 C176.87543299 269.6640625 176.87543299 269.6640625 179.28515625 269.6640625 C179.35946757 274.84184652 179.41383433 280.01931819 179.44995117 285.19750977 C179.46501178 286.95798146 179.48546451 288.7184158 179.51147461 290.47875977 C179.54797854 293.01327753 179.56490979 295.54729802 179.578125 298.08203125 C179.59360886 298.86555466 179.60909271 299.64907806 179.62504578 300.4563446 C179.62644451 305.02668032 179.23142479 308.08777427 176.28515625 311.6640625 C173.31443132 312.65430414 171.39110572 312.7875013 168.2928009 312.78431702 C167.26215012 312.78569168 166.23149933 312.78706635 165.1696167 312.78848267 C163.47461029 312.78308975 163.47461029 312.78308975 161.74536133 312.77758789 C159.9598008 312.77780693 159.9598008 312.77780693 158.13816833 312.7780304 C154.87397018 312.77745272 151.60981478 312.77243418 148.34562516 312.76545644 C144.93433203 312.75920914 141.52303808 312.75861801 138.11174011 312.75743103 C131.65195947 312.75432178 125.19219573 312.74611386 118.73242253 312.73608154 C111.37820261 312.72490781 104.02398188 312.71940677 96.66975558 312.71438611 C81.54154638 312.70393092 66.413353 312.68633932 51.28515625 312.6640625 C51.27968781 310.9242511 51.27968781 310.9242511 51.27410889 309.14929199 C51.23712034 298.20280525 51.17930522 287.25659882 51.10125351 276.31032562 C51.06179417 270.6831091 51.02959797 265.0560487 51.01416016 259.42871094 C50.99898364 253.99499678 50.96451981 248.5617119 50.91684723 243.12818909 C50.90204381 241.05827064 50.89411583 238.98829091 50.8932724 236.9183197 C50.89089792 234.01214167 50.86377897 231.10714532 50.83105469 228.20117188 C50.83608505 227.35096466 50.84111542 226.50075745 50.84629822 225.62478638 C50.72808793 218.81120203 48.80476864 213.64603675 44.390625 208.421875 C43.75769531 207.88304687 43.12476563 207.34421875 42.47265625 206.7890625 C41.84746094 206.23476563 41.22226563 205.68046875 40.578125 205.109375 C34.51633768 201.28848691 27.92150472 201.33660367 20.9765625 201.25 C20.00984116 201.23063385 19.04311981 201.2112677 18.04710388 201.1913147 C14.98070912 201.13187059 11.91427609 201.08527481 8.84765625 201.0390625 C6.75974989 201.00085033 4.67185875 200.96179674 2.58398438 200.921875 C-2.51550037 200.82619812 -7.61505886 200.74203795 -12.71484375 200.6640625 C-12.83158463 175.32563142 -12.9197867 149.98724058 -12.97390461 124.64859486 C-12.99969909 112.8837212 -13.03487356 101.11901453 -13.09204102 89.35424805 C-13.14183769 79.10147466 -13.17412571 68.84882219 -13.18528622 58.59593123 C-13.19181127 53.1657745 -13.20717309 47.73596372 -13.24349403 42.30591774 C-13.27739429 37.19644356 -13.28790871 32.08745834 -13.28038216 26.97788239 C-13.28175937 25.10132631 -13.29172732 23.22475414 -13.31087112 21.34829521 C-13.33571646 18.78769032 -13.32978094 16.22893608 -13.31611633 13.66828918 C-13.33068054 12.92411847 -13.34524475 12.17994776 -13.36025029 11.41322643 C-13.30409492 7.52549973 -12.82439698 5.80425307 -10.40185833 2.70423412 C-6.95835033 0.08967916 -4.16470526 -0.06029588 0 0 Z " fill="#F4F4F4" transform="translate(172.71484375,103.3359375)"/>
<path d="M0 0 C1.15468025 0.01061211 1.15468025 0.01061211 2.33268738 0.0214386 C4.77879178 0.049312 7.22256259 0.11202988 9.66796875 0.17578125 C11.33134702 0.20087357 12.99476137 0.22368512 14.65820312 0.24414062 C18.72485032 0.29911454 22.78976464 0.38533198 26.85546875 0.48828125 C26.85689377 1.37253784 26.85831879 2.25679443 26.85978699 3.16784668 C26.8776586 11.52438661 26.91939515 19.88039974 26.98755932 28.23668671 C27.02176737 32.53221032 27.0469296 36.82738063 27.05102539 41.12304688 C27.05532173 45.27309921 27.08389379 49.42235538 27.12890053 53.57215881 C27.14183312 55.15083672 27.14619828 56.72961011 27.14162254 58.30833435 C26.91561847 70.37089979 26.91561847 70.37089979 32.85546875 80.48828125 C37.26862356 83.55830199 40.5588864 83.92614613 45.85546875 83.48828125 C50.13249037 81.99346174 54.21582777 80.02813168 58.296875 78.06835938 C62.81275197 76.0801287 65.77296061 75.01116171 70.57421875 76.58203125 C72.01376602 77.18868176 73.44216677 77.82277491 74.85546875 78.48828125 C76.00273437 78.94589844 77.15 79.40351563 78.33203125 79.875 C79.37101562 80.30425781 80.41 80.73351562 81.48046875 81.17578125 C89.12310506 84.16234636 89.12310506 84.16234636 96.9453125 82.56640625 C101.72985521 79.90159765 103.68956432 77.61809794 105.85546875 72.48828125 C106.3224049 68.97790013 106.3224049 68.97790013 106.2878418 65.19775391 C106.29803345 64.49462067 106.3082251 63.79148743 106.31872559 63.06704712 C106.3487207 60.76206353 106.35810043 58.45749641 106.3671875 56.15234375 C106.38404427 54.54664748 106.40219585 52.94096432 106.42158508 51.33529663 C106.46898316 47.12351582 106.49885821 42.9117882 106.52502441 38.6998291 C106.55488157 34.3961334 106.60139413 30.09262079 106.64648438 25.7890625 C106.73240144 17.35555892 106.79979802 8.92203848 106.85546875 0.48828125 C111.60600386 0.41392903 116.35619762 0.35958434 121.10717773 0.32348633 C122.72214664 0.30843249 124.33707488 0.28798477 125.9519043 0.26196289 C128.2779343 0.22542839 130.60342216 0.2085211 132.9296875 0.1953125 C134.0065406 0.17208672 134.0065406 0.17208672 135.10514832 0.14839172 C139.53857844 0.14691511 142.33445988 0.75156702 145.85546875 3.48828125 C147.2101595 6.19766275 146.98763234 8.3171328 146.99591064 11.35176086 C147.00162079 12.60099335 147.00733093 13.85022583 147.01321411 15.13731384 C147.01445953 16.52944936 147.01558461 17.921585 147.01660156 19.3137207 C147.02122881 20.77386603 147.02625334 22.23401014 147.03164673 23.69415283 C147.04478248 27.66738344 147.05121807 31.64059713 147.05565739 35.61384606 C147.05858646 38.09538708 147.06269097 40.57692346 147.06716156 43.05846214 C147.08084012 50.82029268 147.09050479 58.58211263 147.09436345 66.34395438 C147.09884404 75.30804109 147.11639043 84.27197529 147.14536405 93.23601562 C147.16697339 100.16176998 147.17706735 107.08748141 147.17840457 114.01326913 C147.17945322 118.15109532 147.1853735 122.28877824 147.20322418 126.42656898 C147.21969183 130.31962709 147.22186683 134.21243402 147.21308517 138.10551453 C147.21231407 139.53376119 147.21666723 140.96202127 147.22654343 142.39023399 C147.2392436 144.3413986 147.23160143 146.2926639 147.22296143 148.24385071 C147.22442799 149.33542134 147.22589455 150.42699198 147.22740555 151.55164051 C146.80038084 154.92322989 145.91485142 156.80077547 143.85546875 159.48828125 C140.61859748 160.56723834 138.27041633 160.61943657 134.86500549 160.62872314 C133.61295319 160.63443329 132.36090088 160.64014343 131.07090759 160.64602661 C129.68081675 160.64727194 128.29072579 160.64839704 126.90063477 160.64941406 C125.43871943 160.65404263 123.9768053 160.65906734 122.51489258 160.66445923 C118.54178832 160.67757947 114.56870096 160.68402717 110.59557843 160.68846989 C108.11420734 160.69140054 105.63284086 160.69550529 103.15147209 160.69997406 C95.39018098 160.71364651 87.62890043 160.72331503 79.86759812 160.72717595 C70.90351152 160.7316596 61.93957718 160.7492227 52.97553688 160.77817655 C46.04892874 160.7997744 39.12236351 160.80987918 32.19572204 160.81121707 C28.05738374 160.81226624 23.91918861 160.81819803 19.7808857 160.83603668 C15.88945893 160.85248521 11.99828349 160.85468869 8.10683441 160.84589767 C6.67816687 160.84512563 5.24948598 160.84949206 3.82085228 160.85935593 C1.87158088 160.87202601 -0.07779097 160.86442494 -2.02708435 160.85577393 C-3.11827796 160.85724049 -4.20947157 160.85870705 -5.33373165 160.86021805 C-8.52126292 160.43843053 -9.87584445 159.73586605 -12.14453125 157.48828125 C-13.22154688 154.25723436 -13.2810461 151.90378765 -13.2984314 148.50454712 C-13.30703186 147.25393997 -13.31563232 146.00333282 -13.32449341 144.71482849 C-13.32892847 143.32632488 -13.33322684 141.93782082 -13.33740234 140.54931641 C-13.34530473 139.08902288 -13.35357376 137.6287313 -13.36218262 136.16844177 C-13.38838116 131.37142802 -13.40370542 126.57440561 -13.41796875 121.77734375 C-13.42332882 120.12597015 -13.42870633 118.4745966 -13.4341011 116.82322311 C-13.45572427 109.95528482 -13.47446206 103.08734886 -13.4857235 96.21938515 C-13.50197157 86.37514196 -13.53517627 76.53129289 -13.59212434 66.68719828 C-13.63080184 59.76567311 -13.65035341 52.84425346 -13.65564406 45.92262304 C-13.6592998 41.78804562 -13.67134453 37.65388877 -13.7037468 33.51942825 C-13.73379028 29.63034216 -13.74015304 25.74193193 -13.72836304 21.85275459 C-13.728142 20.42610087 -13.73647198 18.99941611 -13.75401688 17.57287025 C-13.77667937 15.62403943 -13.76543811 13.67490253 -13.75253296 11.72598267 C-13.75584311 10.63571085 -13.75915325 9.54543903 -13.76256371 8.42212868 C-12.18683707 0.94203358 -6.74905959 -0.23543498 0 0 Z " fill="#C08D60" transform="translate(61.14453125,319.51171875)"/>
<path d="M0 0 C14 7 14 7 28 14 C27.36397134 18.8370098 25.35710218 22.7269962 23.203125 27.03515625 C22.62604546 28.20803947 22.62604546 28.20803947 22.03730774 29.40461731 C21.21055219 31.08414146 20.38131146 32.76244412 19.54983521 34.43963623 C17.34710855 38.88439347 15.16377292 43.33864662 12.98046875 47.79296875 C12.5454454 48.67974304 12.11042206 49.56651733 11.66221619 50.48016357 C8.19351626 57.56666364 4.84612768 64.70065533 1.5625 71.875 C-3.77377362 83.50915559 -9.36569617 95.00800355 -15 106.5 C-22.39693289 121.58877843 -29.6049313 136.74263372 -36.62011719 152.01269531 C-40.01879076 159.37047482 -43.51306342 166.6837403 -47 174 C-51.03469667 172.72451525 -54.80826546 171.2387032 -58.6171875 169.3984375 C-59.63554687 168.90859375 -60.65390625 168.41875 -61.703125 167.9140625 C-62.74984375 167.40617188 -63.7965625 166.89828125 -64.875 166.375 C-65.94492187 165.859375 -67.01484375 165.34375 -68.1171875 164.8125 C-70.74635682 163.54486479 -73.37388302 162.2739434 -76 161 C-75.38659741 157.1532012 -74.23458074 154.07840195 -72.515625 150.58984375 C-71.99991943 149.5332959 -71.48421387 148.47674805 -70.95288086 147.38818359 C-70.10995483 145.68009521 -70.10995483 145.68009521 -69.25 143.9375 C-68.04466113 141.47175919 -66.84422268 139.00364892 -65.64453125 136.53515625 C-65.33733658 135.90403931 -65.03014191 135.27292236 -64.71363831 134.62268066 C-61.69933186 128.41416997 -58.81589551 122.14751127 -55.9375 115.875 C-50.05201586 103.09103171 -43.8801965 90.45431409 -37.68518066 77.81811523 C-31.88146376 65.97474478 -26.19567991 54.09350844 -20.68652344 42.11010742 C-16.47255247 32.96272373 -12.13285402 23.87981708 -7.75 14.8125 C-7.41672699 14.12122009 -7.08345398 13.42994019 -6.74008179 12.7177124 C-5.80310238 10.77546768 -4.86310091 8.83472099 -3.921875 6.89453125 C-3.11121582 5.22161011 -3.11121582 5.22161011 -2.28417969 3.51489258 C-1 1 -1 1 0 0 Z " fill="#25A4FB" transform="translate(409,165)"/>
<path d="M0 0 C1.20094299 0.00030212 2.40188599 0.00060425 3.63922119 0.00091553 C4.93100281 0.02156067 6.22278442 0.04220581 7.55371094 0.06347656 C8.89320022 0.07094085 10.23270046 0.0766329 11.57220459 0.08062744 C15.0906003 0.09586943 18.60833109 0.13513739 22.12646484 0.17944336 C25.71930955 0.22042792 29.31226214 0.23864516 32.90527344 0.25878906 C39.9498416 0.30163427 46.9938503 0.37197146 54.03808594 0.45410156 C54.03808594 5.73410156 54.03808594 11.01410156 54.03808594 16.45410156 C51.96527344 16.47988281 49.89246094 16.50566406 47.75683594 16.53222656 C45.7245807 16.57398523 43.69232587 16.61588549 41.66015625 16.66162109 C40.25988633 16.68965227 38.85946343 16.71095473 37.45898438 16.72509766 C28.21169654 16.8240344 21.04291716 17.06833483 13.79589844 23.41894531 C13.25707031 24.06992188 12.71824219 24.72089844 12.16308594 25.39160156 C11.60878906 26.04 11.05449219 26.68839844 10.48339844 27.35644531 C7.1134043 32.24749086 6.74473874 36.7612702 6.75961304 42.57221985 C6.75382064 43.38503534 6.74802823 44.19785083 6.7420603 45.0352971 C6.72506903 47.75607498 6.72218455 50.47668313 6.71923828 53.19750977 C6.70993951 55.14896561 6.69977091 57.10041748 6.688797 59.05186462 C6.66147726 64.34891182 6.64634169 69.64593239 6.63336897 74.94303155 C6.61774711 80.47907585 6.59095386 86.01506571 6.56533813 91.55107117 C6.51853365 102.03401052 6.48179759 112.51696009 6.44866526 122.99995059 C6.4104557 134.93457686 6.36104247 146.86914848 6.3106811 158.8037287 C6.20733639 183.35381325 6.11848162 207.90393206 6.03808594 232.45410156 C0.75808594 232.45410156 -4.52191406 232.45410156 -9.96191406 232.45410156 C-10.053129 203.47636974 -10.12393441 174.4986519 -10.16617538 145.52080525 C-10.17117832 142.10110952 -10.17635559 138.68141406 -10.18164062 135.26171875 C-10.18268987 134.58090782 -10.18373911 133.9000969 -10.18482015 133.19865534 C-10.20223396 122.16941925 -10.23377697 111.1402664 -10.27052525 100.11107972 C-10.30790761 88.79737755 -10.32984468 77.48373715 -10.33826804 66.16996932 C-10.34349191 59.81379383 -10.35580618 53.45780726 -10.38483429 47.1016922 C-10.411918 41.12307799 -10.42037326 35.14473112 -10.41434479 29.1660614 C-10.41544818 26.96819864 -10.42344369 24.77032723 -10.43873596 22.5725174 C-10.45855331 19.5783069 -10.45388316 16.58511398 -10.44293213 13.59088135 C-10.45458349 12.7153965 -10.46623486 11.83991166 -10.4782393 10.93789697 C-10.42008903 5.08082072 -10.42008903 5.08082072 -8.10427856 1.91311646 C-5.26049356 -0.02358697 -3.42777311 -0.02880482 0 0 Z " fill="#FEB200" transform="translate(137.9619140625,71.5458984375)"/>
<path d="M0 0 C0.33 0 0.66 0 1 0 C1.11684226 14.6469136 1.20499233 29.29376546 1.25906086 43.94105053 C1.28483409 50.74219029 1.31996701 57.54304034 1.37719727 64.34399414 C1.43238765 70.90567185 1.4614114 77.46712742 1.47438622 84.02904701 C1.48363415 86.53414972 1.50169297 89.0392357 1.52865028 91.54421043 C1.56487789 95.04961301 1.56994771 98.55376691 1.56762695 102.05932617 C1.59459152 103.61731178 1.59459152 103.61731178 1.62210083 105.20677185 C1.61522751 106.16444458 1.60835419 107.12211731 1.60127258 108.10881042 C1.60818603 109.35184826 1.60818603 109.35184826 1.61523914 110.61999798 C0.68135403 114.23265574 -1.09119875 115.73619061 -4 118 C-7.03593159 118.61523914 -7.03593159 118.61523914 -10.485672 118.60127258 C-11.7967392 118.6081459 -13.1078064 118.61501923 -14.45860291 118.62210083 C-15.90445522 118.60440716 -17.35030172 118.58623314 -18.79614258 118.56762695 C-20.32395379 118.56621606 -21.85176839 118.56700927 -23.37957764 118.56983948 C-27.52200908 118.57127345 -31.6637159 118.5418873 -35.80597901 118.50696969 C-40.13678448 118.47570279 -44.46760677 118.4727752 -48.79850769 118.46684265 C-56.99729774 118.45130515 -65.19575424 118.41027807 -73.39439744 118.3600952 C-82.7292342 118.30419874 -92.06408693 118.27671449 -101.3990494 118.25161803 C-120.59956058 118.19936203 -139.79974125 118.11041394 -159 118 C-159 112.72 -159 107.44 -159 102 C-156.70308701 101.99453156 -156.70308701 101.99453156 -154.35977173 101.98895264 C-139.91149046 101.95197176 -125.46345601 101.89440046 -111.01534462 101.81609726 C-103.58786301 101.77636729 -96.16048642 101.74394427 -88.73291016 101.72900391 C-82.25547651 101.71595588 -75.77827453 101.68891151 -69.30097139 101.64538693 C-65.87444451 101.62284231 -62.44820262 101.60708506 -59.021595 101.60811615 C-55.18673453 101.60574343 -51.35277162 101.57863594 -47.51806641 101.54589844 C-46.39452759 101.5509288 -45.27098877 101.55595917 -44.11340332 101.56114197 C-36.51254598 101.46110496 -28.99262924 100.52793662 -23.08600807 95.30877304 C-16.12961484 87.90598141 -15.57543725 80.50120743 -15.62890625 70.75 C-15.61152882 68.34374854 -15.59394439 65.93749857 -15.57617188 63.53125 C-15.56609245 59.75908713 -15.56250586 55.98701955 -15.56420898 52.21484375 C-15.5606357 48.55960963 -15.53328615 44.90510422 -15.50390625 41.25 C-15.51208878 40.1269043 -15.5202713 39.00380859 -15.52870178 37.84667969 C-15.46602 31.23845378 -14.78264267 27.43202826 -11 22 C-10.05139757 20.17636087 -9.11805948 18.34466728 -8.203125 16.50390625 C-7.47802734 15.04887695 -7.47802734 15.04887695 -6.73828125 13.56445312 C-6.24714844 12.57380859 -5.75601563 11.58316406 -5.25 10.5625 C-4.74339844 9.54478516 -4.23679687 8.52707031 -3.71484375 7.47851562 C-2.47472678 4.98658247 -1.23649737 2.49373064 0 0 Z " fill="#FEB200" transform="translate(383,330)"/>
<path d="M0 0 C0.82175217 -0.00554901 1.64350433 -0.01109802 2.49015808 -0.01681519 C5.19911515 -0.02859978 7.90639499 -0.00434938 10.61523438 0.02148438 C12.50183028 0.02319588 14.38842856 0.02312939 16.27502441 0.0213623 C20.22606199 0.02301487 24.17653173 0.04170121 28.12744141 0.07324219 C33.1883391 0.11291954 38.24849319 0.11728702 43.30951691 0.10977936 C47.20435379 0.10670774 51.09902394 0.11883701 54.99382019 0.13591003 C56.85970514 0.14293428 58.72560898 0.14606527 60.59150696 0.1452179 C63.20067401 0.14701848 65.80895517 0.16842221 68.41796875 0.1953125 C69.18694992 0.1923819 69.95593109 0.18945129 70.74821472 0.18643188 C75.22812538 0.25756011 78.15074365 0.83251037 81.70898438 3.61523438 C83.80712855 7.81152272 82.93586965 13.26558287 82.94921875 17.8815918 C82.95889861 19.90976376 82.9899097 21.93691079 83.02148438 23.96484375 C83.02921875 25.88973633 83.02921875 25.88973633 83.03710938 27.85351562 C83.04645508 29.02954346 83.05580078 30.20557129 83.06542969 31.41723633 C82.67131377 34.95321197 81.88534048 36.82147906 79.70898438 39.61523438 C75.98138797 40.85776651 72.51219557 40.77078604 68.62915039 40.77636719 C67.39455078 40.78381454 67.39455078 40.78381454 66.13500977 40.79141235 C63.41096157 40.80602344 60.68697157 40.81283351 57.96289062 40.81835938 C56.07103982 40.82411081 54.17918903 40.82986855 52.28733826 40.83563232 C48.32038094 40.8461387 44.35344388 40.85198404 40.38647461 40.85546875 C35.30084772 40.86095881 30.21548785 40.88499928 25.1299448 40.9134407 C21.22233799 40.93205228 17.31479576 40.93727185 13.40714836 40.93880463 C11.53203811 40.94183403 9.65692907 40.9498722 7.78186226 40.96298981 C5.16043802 40.98002266 2.53966984 40.97817716 -0.08178711 40.97167969 C-1.24536491 40.98550186 -1.24536491 40.98550186 -2.43244934 40.99960327 C-5.62252211 40.9748031 -7.91360191 40.82080372 -10.74159241 39.28045654 C-14.80724752 34.91094734 -13.59104574 27.85393873 -13.64111328 22.2734375 C-13.65767313 20.92137438 -13.68496487 19.56939883 -13.72314453 18.21777344 C-13.77809434 16.25964898 -13.79668162 14.30061158 -13.81445312 12.34179688 C-13.83427246 11.17213379 -13.8540918 10.0024707 -13.87451172 8.79736328 C-12.46234463 1.0960303 -6.94191007 -0.11973278 0 0 Z " fill="#414141" transform="translate(221.291015625,55.384765625)"/>
<path d="M0 0 C15.84 0 31.68 0 48 0 C48 22.44 48 44.88 48 68 C38.1 64.04 38.1 64.04 28 60 C17.64785905 59.50481243 17.64785905 59.50481243 0 68 C0 45.56 0 23.12 0 0 Z " fill="#FE3B37" transform="translate(104,320)"/>
<path d="M0 0 C7.6062223 -0.09047156 15.21224346 -0.16381394 22.81887341 -0.20724869 C26.35121382 -0.22809843 29.88316613 -0.25636679 33.4152832 -0.30175781 C37.47871567 -0.35364825 41.54174228 -0.37296666 45.60546875 -0.390625 C46.8702153 -0.41127014 48.13496185 -0.43191528 49.43803406 -0.45318604 C50.61888077 -0.45348816 51.79972748 -0.45379028 53.01635742 -0.45410156 C54.05338303 -0.46298401 55.09040863 -0.47186646 56.15885925 -0.48101807 C59.9865685 0.16703054 61.48032746 1.01902552 64 4 C64.77968927 7.20138265 64.77548225 10.3488867 64.78979492 13.63256836 C64.82462227 15.09975815 64.82462227 15.09975815 64.8601532 16.59658813 C64.92823018 19.84454928 64.95734116 23.09126832 64.98046875 26.33984375 C65.0067282 28.61878104 65.03312305 30.89771677 65.05964661 33.176651 C65.10773197 37.97436482 65.13289837 42.77165206 65.14624023 47.56958008 C65.16356129 52.43848726 65.2253512 57.30335694 65.33081055 62.17114258 C66.44272182 114.38503983 66.44272182 114.38503983 50 138 C49.34 138.99 48.68 139.98 48 141 C47.99853344 140.45592499 47.99706688 139.91184998 47.99555588 139.35128784 C47.95843839 126.08780247 47.89910778 112.82457479 47.81609726 99.56129456 C47.7766198 93.14713531 47.74443239 86.73311341 47.72900391 80.31884766 C47.71383947 74.1265474 47.6793967 67.93462474 47.63169098 61.74249268 C47.61687517 59.3822966 47.60895887 57.02204662 47.60811615 54.6618042 C47.60574547 51.35095146 47.57865557 48.04114133 47.54589844 44.73046875 C47.5509288 43.75870193 47.55595917 42.78693512 47.56114197 41.78572083 C47.45368649 34.74721183 45.87555715 29.48490141 41.359375 24.01171875 C40.82828125 23.57472656 40.2971875 23.13773438 39.75 22.6875 C38.96882813 22.01267578 38.96882813 22.01267578 38.171875 21.32421875 C30.23655596 16.48595768 22.59394496 16.47423174 13.5 16.3125 C12.200625 16.27833984 10.90125 16.24417969 9.5625 16.20898438 C6.37529416 16.1269607 3.18766225 16.06179292 0 16 C0 10.72 0 5.44 0 0 Z " fill="#FEB200" transform="translate(320,72)"/>
<path d="M0 0 C0.80232056 -0.00004028 1.60464111 -0.00008057 2.43127441 -0.00012207 C4.12239443 0.00522359 5.8135146 0.02276578 7.50439453 0.05175781 C10.08573724 0.09362006 12.66446867 0.09282315 15.24609375 0.0859375 C16.89324721 0.09643096 18.54038728 0.10936992 20.1875 0.125 C21.3392572 0.12530212 21.3392572 0.12530212 22.51428223 0.12561035 C27.02599744 0.22473308 30.01087988 0.78722566 33.59375 3.59375 C35.18381531 6.77388063 34.77792077 10.21345657 34.796875 13.70703125 C34.80257507 14.51359665 34.80827515 15.32016205 34.81414795 16.15116882 C34.82360195 17.86012458 34.83013352 19.5690986 34.83398438 21.27807617 C34.8436732 23.88558041 34.874685 26.49229078 34.90625 29.09960938 C34.91278185 30.76041199 34.91803161 32.42122024 34.921875 34.08203125 C34.9342218 34.85928055 34.9465686 35.63652985 34.95928955 36.43733215 C34.94069428 40.98490483 34.51725081 44.03271364 31.59375 47.59375 C27.8240619 48.8503127 24.27657257 48.77550362 20.34765625 48.796875 C19.13637306 48.80542511 19.13637306 48.80542511 17.90061951 48.81414795 C16.19344388 48.82358834 14.48625011 48.83012812 12.77905273 48.83398438 C10.16943625 48.8437009 7.56060393 48.8747369 4.95117188 48.90625 C3.29167134 48.91277933 1.63216518 48.91803007 -0.02734375 48.921875 C-0.80661728 48.9342218 -1.58589081 48.9465686 -2.38877869 48.95928955 C-5.62902164 48.94598287 -7.99008795 48.81914875 -10.86743164 47.26074219 C-15.32042454 42.43684317 -13.7127961 33.07245058 -13.75634766 26.83398438 C-13.77291642 25.09393955 -13.80021889 23.35396305 -13.83837891 21.61425781 C-13.89321881 19.09925214 -13.9150286 16.58583593 -13.9296875 14.0703125 C-13.95235687 13.29620026 -13.97502625 12.52208801 -13.99838257 11.72451782 C-13.98351021 7.91146608 -13.53704249 5.78874566 -11.39892578 2.60107422 C-7.57414985 0.03562245 -4.45403041 -0.09510468 0 0 Z " fill="#000000" transform="translate(189.40625,247.40625)"/>
<path d="M0 0 C0.80232056 -0.00004028 1.60464111 -0.00008057 2.43127441 -0.00012207 C4.12239443 0.00522359 5.8135146 0.02276578 7.50439453 0.05175781 C10.08573724 0.09362006 12.66446867 0.09282315 15.24609375 0.0859375 C16.89324721 0.09643096 18.54038728 0.10936992 20.1875 0.125 C21.3392572 0.12530212 21.3392572 0.12530212 22.51428223 0.12561035 C27.02599744 0.22473308 30.01087988 0.78722566 33.59375 3.59375 C35.18381531 6.77388063 34.77792077 10.21345657 34.796875 13.70703125 C34.80257507 14.51359665 34.80827515 15.32016205 34.81414795 16.15116882 C34.82360195 17.86012458 34.83013352 19.5690986 34.83398438 21.27807617 C34.8436732 23.88558041 34.874685 26.49229078 34.90625 29.09960938 C34.91278185 30.76041199 34.91803161 32.42122024 34.921875 34.08203125 C34.9342218 34.85928055 34.9465686 35.63652985 34.95928955 36.43733215 C34.94069428 40.98490483 34.51725081 44.03271364 31.59375 47.59375 C27.8240619 48.8503127 24.27657257 48.77550362 20.34765625 48.796875 C19.13637306 48.80542511 19.13637306 48.80542511 17.90061951 48.81414795 C16.19344388 48.82358834 14.48625011 48.83012812 12.77905273 48.83398438 C10.16943625 48.8437009 7.56060393 48.8747369 4.95117188 48.90625 C3.29167134 48.91277933 1.63216518 48.91803007 -0.02734375 48.921875 C-0.80661728 48.9342218 -1.58589081 48.9465686 -2.38877869 48.95928955 C-5.62902164 48.94598287 -7.99008795 48.81914875 -10.86743164 47.26074219 C-15.32042454 42.43684317 -13.7127961 33.07245058 -13.75634766 26.83398438 C-13.77291642 25.09393955 -13.80021889 23.35396305 -13.83837891 21.61425781 C-13.89321881 19.09925214 -13.9150286 16.58583593 -13.9296875 14.0703125 C-13.95235687 13.29620026 -13.97502625 12.52208801 -13.99838257 11.72451782 C-13.98351021 7.91146608 -13.53704249 5.78874566 -11.39892578 2.60107422 C-7.57414985 0.03562245 -4.45403041 -0.09510468 0 0 Z " fill="#000000" transform="translate(189.40625,191.40625)"/>
<path d="M0 0 C1.70079964 -0.00832352 1.70079964 -0.00832352 3.43595886 -0.01681519 C7.18364735 -0.02862501 10.93013045 -0.00432053 14.67773438 0.02148438 C17.28177841 0.02319516 19.88582417 0.02313013 22.48986816 0.0213623 C27.94733302 0.02141584 33.40445119 0.04114814 38.86181641 0.07324219 C45.16545045 0.11013354 51.46863051 0.11891739 57.77235842 0.11194468 C63.84380714 0.10563272 69.91507565 0.11662028 75.98649597 0.13591003 C78.56690207 0.14294482 81.14732188 0.14606399 83.72773743 0.1452179 C87.33306708 0.14701417 90.93775069 0.16838292 94.54296875 0.1953125 C95.61117355 0.1923819 96.67937836 0.18945129 97.779953 0.18643188 C106.90331966 0.29165284 106.90331966 0.29165284 110.77148438 3.61523438 C112.17606174 6.42438911 112.02043595 8.50333972 111.77148438 11.61523438 C109.99164033 14.75115008 109.24840231 15.45626173 105.77148438 16.61523438 C104.18415184 16.7148891 102.59301778 16.75875149 101.00259399 16.76913452 C100.02123978 16.77773499 99.03988556 16.78633545 98.02879333 16.79519653 C96.4157003 16.80158646 96.4157003 16.80158646 94.77001953 16.80810547 C93.06965797 16.8203717 93.06965797 16.8203717 91.33494568 16.83288574 C87.57681815 16.8577367 83.81872832 16.87425294 80.06054688 16.88867188 C78.77872906 16.89399555 77.49691124 16.89931923 76.17625046 16.90480423 C70.79065111 16.92603021 65.40506406 16.94516107 60.01943398 16.95642662 C52.30516086 16.97267077 44.59139096 17.0058691 36.87730753 17.06282747 C30.7963042 17.10619564 24.71549835 17.12217123 18.63434982 17.12855911 C16.04831734 17.13528837 13.46229267 17.15055346 10.87636185 17.17444992 C7.26109492 17.20595872 3.64710564 17.20615919 0.03173828 17.19873047 C-1.03960861 17.2151358 -2.11095551 17.23154114 -3.21476746 17.2484436 C-10.45765215 17.18739986 -10.45765215 17.18739986 -14.39321899 14.26626587 C-16.22851562 11.61523438 -16.22851562 11.61523438 -16.85351562 8.61523438 C-14.95432095 -0.50090008 -7.66739512 -0.09520135 0 0 Z " fill="#010101" transform="translate(208.228515625,143.384765625)"/>
<path d="M0 0 C0.89978073 -0.00554901 1.79956146 -0.01109802 2.72660828 -0.01681519 C5.69523695 -0.02860769 8.66233789 -0.00434019 11.63085938 0.02148438 C13.69681733 0.02319565 15.76277745 0.02312963 17.82873535 0.0213623 C22.15638023 0.02301533 26.48350697 0.04171049 30.81103516 0.07324219 C36.35618814 0.11291946 41.90066248 0.11728726 47.44593048 0.10977936 C51.71134652 0.10670872 55.97661021 0.11883359 60.24198914 0.13591003 C62.28650456 0.1429376 64.33103725 0.14606486 66.37556458 0.1452179 C69.23376629 0.14701712 72.09115734 0.16840986 74.94921875 0.1953125 C75.79300583 0.1923819 76.63679291 0.18945129 77.50614929 0.18643188 C82.13766626 0.25363872 85.21429275 0.60693514 88.97460938 3.61523438 C90.37918674 6.42438911 90.22356095 8.50333972 89.97460938 11.61523438 C88.19476533 14.75115008 87.45152731 15.45626173 83.97460938 16.61523438 C81.03448576 16.73252673 78.1172141 16.79338326 75.17626953 16.80810547 C74.27678085 16.81628296 73.37729218 16.82446045 72.45054626 16.83288574 C69.4715949 16.85771496 66.49269104 16.8742475 63.51367188 16.88867188 C62.49663555 16.89399555 61.47959923 16.89931923 60.43174362 16.90480423 C55.05085758 16.93152225 49.66999466 16.95090339 44.2890625 16.96533203 C38.72807442 16.9819966 33.16767704 17.02679358 27.60691261 17.07770348 C23.33297023 17.11132992 19.05916907 17.12290427 14.78510666 17.12855911 C12.73495329 17.13528192 10.68480955 17.15053061 8.6347847 17.17444992 C5.76660934 17.20601182 2.90004116 17.20615198 0.03173828 17.19873047 C-0.81519089 17.2151358 -1.66212006 17.23154114 -2.53471375 17.2484436 C-6.85367877 17.20267959 -8.52616618 17.00263424 -12.05239868 14.26626587 C-14.02539062 11.61523438 -14.02539062 11.61523438 -14.65039062 8.61523438 C-12.95578746 0.48113918 -7.04520536 -0.11074154 0 0 Z " fill="#010101" transform="translate(246.025390625,263.384765625)"/>
<path d="M0 0 C0.89978073 -0.00554901 1.79956146 -0.01109802 2.72660828 -0.01681519 C5.69523695 -0.02860769 8.66233789 -0.00434019 11.63085938 0.02148438 C13.69681733 0.02319565 15.76277745 0.02312963 17.82873535 0.0213623 C22.15638023 0.02301533 26.48350697 0.04171049 30.81103516 0.07324219 C36.35618814 0.11291946 41.90066248 0.11728726 47.44593048 0.10977936 C51.71134652 0.10670872 55.97661021 0.11883359 60.24198914 0.13591003 C62.28650456 0.1429376 64.33103725 0.14606486 66.37556458 0.1452179 C69.23376629 0.14701712 72.09115734 0.16840986 74.94921875 0.1953125 C75.79300583 0.1923819 76.63679291 0.18945129 77.50614929 0.18643188 C82.13766626 0.25363872 85.21429275 0.60693514 88.97460938 3.61523438 C90.37918674 6.42438911 90.22356095 8.50333972 89.97460938 11.61523438 C88.19476533 14.75115008 87.45152731 15.45626173 83.97460938 16.61523438 C81.03448576 16.73252673 78.1172141 16.79338326 75.17626953 16.80810547 C74.27678085 16.81628296 73.37729218 16.82446045 72.45054626 16.83288574 C69.4715949 16.85771496 66.49269104 16.8742475 63.51367188 16.88867188 C62.49663555 16.89399555 61.47959923 16.89931923 60.43174362 16.90480423 C55.05085758 16.93152225 49.66999466 16.95090339 44.2890625 16.96533203 C38.72807442 16.9819966 33.16767704 17.02679358 27.60691261 17.07770348 C23.33297023 17.11132992 19.05916907 17.12290427 14.78510666 17.12855911 C12.73495329 17.13528192 10.68480955 17.15053061 8.6347847 17.17444992 C5.76660934 17.20601182 2.90004116 17.20615198 0.03173828 17.19873047 C-0.81519089 17.2151358 -1.66212006 17.23154114 -2.53471375 17.2484436 C-6.85367877 17.20267959 -8.52616618 17.00263424 -12.05239868 14.26626587 C-14.02539062 11.61523438 -14.02539062 11.61523438 -14.65039062 8.61523438 C-12.95578746 0.48113918 -7.04520536 -0.11074154 0 0 Z " fill="#010101" transform="translate(246.025390625,207.384765625)"/>
<path d="M0 0 C1.73618591 -0.00006042 1.73618591 -0.00006042 3.50744629 -0.00012207 C5.95179684 0.00523347 8.39614694 0.02281732 10.84033203 0.05175781 C14.58028833 0.09359939 18.31844293 0.09282635 22.05859375 0.0859375 C24.43490834 0.09643055 26.81121365 0.10936926 29.1875 0.125 C30.3053186 0.12520142 31.42313721 0.12540283 32.5748291 0.12561035 C34.14170471 0.14947815 34.14170471 0.14947815 35.74023438 0.17382812 C37.11326721 0.18645691 37.11326721 0.18645691 38.51403809 0.19934082 C41.63433226 0.676399 43.54257635 1.76301627 46.09375 3.59375 C47.49832737 6.40290474 47.34270157 8.48185534 47.09375 11.59375 C45.31390595 14.7296657 44.57066793 15.43477736 41.09375 16.59375 C39.38740843 16.70601312 37.67714861 16.76271412 35.96728516 16.78662109 C34.92255035 16.80268402 33.87781555 16.81874695 32.80142212 16.83529663 C28.03363736 16.87977343 23.26599045 16.92079304 18.49804688 16.94384766 C15.98200239 16.96042624 13.46600536 16.98774082 10.95019531 17.02587891 C7.32331909 17.08057216 3.69754524 17.10250922 0.0703125 17.1171875 C-1.61582657 17.15119156 -1.61582657 17.15119156 -3.33602905 17.18588257 C-11.12480853 17.16476223 -11.12480853 17.16476223 -15.11572266 14.24853516 C-16.90625 11.59375 -16.90625 11.59375 -17.53125 8.59375 C-15.57756079 -0.78395819 -7.83903622 -0.11497667 0 0 Z " fill="#010100" transform="translate(80.90625,447.40625)"/>
<path d="M0 0 C1.73618591 -0.00006042 1.73618591 -0.00006042 3.50744629 -0.00012207 C5.95179684 0.00523347 8.39614694 0.02281732 10.84033203 0.05175781 C14.58028833 0.09359939 18.31844293 0.09282635 22.05859375 0.0859375 C24.43490834 0.09643055 26.81121365 0.10936926 29.1875 0.125 C30.3053186 0.12520142 31.42313721 0.12540283 32.5748291 0.12561035 C34.14170471 0.14947815 34.14170471 0.14947815 35.74023438 0.17382812 C37.11326721 0.18645691 37.11326721 0.18645691 38.51403809 0.19934082 C41.63433226 0.676399 43.54257635 1.76301627 46.09375 3.59375 C47.49832737 6.40290474 47.34270157 8.48185534 47.09375 11.59375 C45.31390595 14.7296657 44.57066793 15.43477736 41.09375 16.59375 C39.38740843 16.70601312 37.67714861 16.76271412 35.96728516 16.78662109 C34.92255035 16.80268402 33.87781555 16.81874695 32.80142212 16.83529663 C28.03363736 16.87977343 23.26599045 16.92079304 18.49804688 16.94384766 C15.98200239 16.96042624 13.46600536 16.98774082 10.95019531 17.02587891 C7.32331909 17.08057216 3.69754524 17.10250922 0.0703125 17.1171875 C-1.61582657 17.15119156 -1.61582657 17.15119156 -3.33602905 17.18588257 C-11.12480853 17.16476223 -11.12480853 17.16476223 -15.11572266 14.24853516 C-16.90625 11.59375 -16.90625 11.59375 -17.53125 8.59375 C-15.57756079 -0.78395819 -7.83903622 -0.11497667 0 0 Z " fill="#010100" transform="translate(80.90625,423.40625)"/>
<path d="M0 0 C6.08392001 0.98736321 11.23191887 3.73444584 16.75 6.375 C17.81605469 6.87 18.88210938 7.365 19.98046875 7.875 C20.99238281 8.35710937 22.00429688 8.83921875 23.046875 9.3359375 C24.43664551 9.99408447 24.43664551 9.99408447 25.85449219 10.66552734 C28 12 28 12 29 15 C28.28735352 17.0847168 28.28735352 17.0847168 27.12890625 19.44921875 C26.71962891 20.29677734 26.31035156 21.14433594 25.88867188 22.01757812 C25.45103516 22.89865234 25.01339844 23.77972656 24.5625 24.6875 C24.12873047 25.58017578 23.69496094 26.47285156 23.24804688 27.39257812 C22.17408871 29.59950314 21.091161 31.80154313 20 34 C15.96530333 32.72451525 12.19173454 31.2387032 8.3828125 29.3984375 C7.36445313 28.90859375 6.34609375 28.41875 5.296875 27.9140625 C4.25015625 27.40617187 3.2034375 26.89828125 2.125 26.375 C1.05507813 25.859375 -0.01484375 25.34375 -1.1171875 24.8125 C-3.74635682 23.54486479 -6.37388302 22.2739434 -9 21 C-8.43768657 17.70859203 -7.67362568 14.98184061 -6.15234375 12.01171875 C-5.79462891 11.30595703 -5.43691406 10.60019531 -5.06835938 9.87304688 C-4.69517578 9.15181641 -4.32199219 8.43058594 -3.9375 7.6875 C-3.37192383 6.57665039 -3.37192383 6.57665039 -2.79492188 5.44335938 C-1.86871843 3.62612478 -0.93509371 1.81267596 0 0 Z " fill="#25A3FA" transform="translate(425,131)"/>
<path d="M0 0 C2.97819304 0.09205324 4.02122686 0.31014179 6.625 1.9375 C8.61847048 5.17688952 8.74437889 7.71213565 8.125 11.375 C6.71947485 15.1547132 4.9437793 18.71672417 3.125 22.3125 C2.64804687 23.28251953 2.17109375 24.25253906 1.6796875 25.25195312 C0.50692573 27.63265953 -0.67810608 30.00635967 -1.875 32.375 C-3.30171564 31.91303208 -4.72727329 31.44748703 -6.15234375 30.98046875 C-6.94632568 30.72160889 -7.74030762 30.46274902 -8.55834961 30.19604492 C-11.4669473 29.16520774 -14.16054319 27.83663059 -16.875 26.375 C-15.17432527 20.31634628 -12.7653977 14.96755641 -9.8125 9.4375 C-9.28366211 8.44351196 -9.28366211 8.44351196 -8.74414062 7.42944336 C-4.96847421 0.48082008 -4.96847421 0.48082008 0 0 Z " fill="#404040" transform="translate(456.875,93.625)"/>
<path d="M0 0 C3.52055917 0.59084404 6.43361222 1.5155542 9.64453125 3.06640625 C10.48564453 3.46923828 11.32675781 3.87207031 12.19335938 4.28710938 C13.05767578 4.70798828 13.92199219 5.12886719 14.8125 5.5625 C15.69615234 5.98724609 16.57980469 6.41199219 17.49023438 6.84960938 C19.66264337 7.89471424 21.83239957 8.94496762 24 10 C22.65812796 14.02561612 19.95861012 15.60335229 16.6875 18.0625 C15.4167768 19.037511 14.14726949 20.01410846 12.87890625 20.9921875 C12.23453613 21.4881543 11.59016602 21.98412109 10.92626953 22.49511719 C7.93901876 24.82888319 5.02801456 27.25024285 2.125 29.6875 C1.13757813 30.51636719 0.15015625 31.34523438 -0.8671875 32.19921875 C-1.57101562 32.79347656 -2.27484375 33.38773437 -3 34 C-4.51560094 30.96879812 -3.65996473 28.05955921 -3.22265625 24.8046875 C-3.13245712 24.09724396 -3.042258 23.38980042 -2.94932556 22.66091919 C-2.65947528 20.39816061 -2.36109141 18.13662006 -2.0625 15.875 C-1.86467199 14.34252041 -1.66739932 12.80996902 -1.47070312 11.27734375 C-0.98691234 7.51736528 -0.49546458 3.75845726 0 0 Z " fill="#404040" transform="translate(327,341)"/>
<path d="M0 0 C5.28 0 10.56 0 16 0 C16 5.28 16 10.56 16 16 C10.72 16 5.44 16 0 16 C0 10.72 0 5.44 0 0 Z " fill="#8BC34A" transform="translate(192,264)"/>
<path d="M0 0 C5.28 0 10.56 0 16 0 C16 5.28 16 10.56 16 16 C10.72 16 5.44 16 0 16 C0 10.72 0 5.44 0 0 Z " fill="#8BC34A" transform="translate(192,208)"/>
</svg>
